<svg width="208" height="158" viewBox="0 0 208 158" fill="none" xmlns="http://www.w3.org/2000/svg">
<g clip-path="url(#clip0)">
<path d="M83.2312 32.7656H82.4724V12.0118C82.4724 10.4343 82.1612 8.87239 81.5566 7.41506C80.952 5.95773 80.0658 4.63356 78.9486 3.51817C77.8314 2.40277 76.5051 1.51799 75.0455 0.914344C73.5858 0.310696 72.0214 1.3365e-06 70.4414 0H26.4014C23.2106 -6.07306e-06 20.1505 1.26551 17.8943 3.51814C15.638 5.77077 14.3705 8.826 14.3705 12.0117V125.869C14.3705 127.446 14.6817 129.008 15.2863 130.465C15.8909 131.923 16.7771 133.247 17.8943 134.362C19.0114 135.478 20.3377 136.363 21.7974 136.966C23.257 137.57 24.8215 137.881 26.4014 137.881H70.4414C73.6322 137.881 76.6923 136.615 78.9485 134.362C81.2048 132.11 82.4723 129.055 82.4723 125.869V47.5385H83.2312V32.7656Z" fill="#3F3D56"/>
<path d="M70.9268 3.12506H65.1782C65.4425 3.77217 65.5434 4.47426 65.472 5.16948C65.4006 5.8647 65.159 6.53171 64.7686 7.11176C64.3781 7.69181 63.8508 8.16709 63.233 8.49573C62.6153 8.82438 61.9261 8.9963 61.2261 8.99635H35.9961C35.2961 8.9963 34.6069 8.82438 33.9892 8.49574C33.3714 8.16709 32.8441 7.69182 32.4536 7.11177C32.0632 6.53172 31.8216 5.8647 31.7502 5.16948C31.6787 4.47426 31.7797 3.77217 32.044 3.12506H26.6748C25.4949 3.12506 24.3266 3.35708 23.2365 3.80788C22.1465 4.25867 21.156 4.91942 20.3217 5.75238C19.4874 6.58534 18.8256 7.57421 18.3741 8.66253C17.9226 9.75085 17.6902 10.9173 17.6902 12.0953V125.785C17.6902 126.963 17.9226 128.13 18.3741 129.218C18.8256 130.306 19.4874 131.295 20.3217 132.128C21.156 132.961 22.1464 133.622 23.2365 134.073C24.3266 134.523 25.4949 134.756 26.6747 134.756H70.9268C72.1067 134.756 73.275 134.523 74.3651 134.073C75.4551 133.622 76.4456 132.961 77.2799 132.128C78.1142 131.295 78.776 130.306 79.2275 129.218C79.679 128.13 79.9114 126.963 79.9114 125.785V12.0953C79.9114 10.9173 79.679 9.75085 79.2275 8.66253C78.776 7.57421 78.1142 6.58534 77.2799 5.75238C76.4456 4.91942 75.4551 4.25867 74.3651 3.80788C73.275 3.35708 72.1067 3.12506 70.9268 3.12506Z" fill="white"/>
<path d="M97.3469 137.9H0.254835C0.187248 137.9 0.12243 137.873 0.0746392 137.826C0.0268484 137.778 0 137.713 0 137.646C0 137.578 0.0268484 137.514 0.0746392 137.466C0.12243 137.418 0.187248 137.391 0.254835 137.391H97.3469C97.4144 137.391 97.4793 137.418 97.5271 137.466C97.5748 137.514 97.6017 137.578 97.6017 137.646C97.6017 137.713 97.5748 137.778 97.5271 137.826C97.4793 137.873 97.4144 137.9 97.3469 137.9Z" fill="#CBCBCB"/>
<path d="M48.8008 87.9508C60.6859 87.9508 70.3207 78.3314 70.3207 66.4653C70.3207 54.5991 60.6859 44.9797 48.8008 44.9797C36.9158 44.9797 27.281 54.5991 27.281 66.4653C27.281 78.3314 36.9158 87.9508 48.8008 87.9508Z" fill="#039BFB"/>
<path d="M46.6684 74.6613C46.1843 74.6621 45.713 74.5057 45.3257 74.2158L45.3017 74.1978L40.2442 70.3352C40.01 70.1559 39.8134 69.9323 39.6657 69.6772C39.518 69.422 39.4221 69.1404 39.3835 68.8482C39.3448 68.5561 39.3642 68.2592 39.4405 67.9745C39.5167 67.6899 39.6484 67.423 39.828 67.1891C40.0076 66.9553 40.2315 66.759 40.487 66.6116C40.7426 66.4641 41.0247 66.3684 41.3173 66.3298C41.6099 66.2912 41.9073 66.3105 42.1924 66.3867C42.4775 66.4628 42.7448 66.5943 42.979 66.7736L46.2548 69.2816L53.9958 59.1989C54.1752 58.9651 54.3991 58.7689 54.6545 58.6215C54.91 58.4742 55.192 58.3784 55.4845 58.3399C55.7769 58.3013 56.0742 58.3206 56.3592 58.3967C56.6442 58.4729 56.9114 58.6043 57.1455 58.7835L57.1462 58.784L57.0981 58.8506L57.1475 58.784C57.6198 59.1464 57.9289 59.6812 58.0068 60.2708C58.0847 60.8605 57.9251 61.457 57.563 61.9293L48.458 73.7836C48.2474 74.0567 47.9765 74.2777 47.6665 74.4295C47.3565 74.5812 47.0157 74.6597 46.6704 74.6587L46.6684 74.6613Z" fill="white"/>
<path d="M176.918 140.012C177.18 139.589 177.488 139.197 177.837 138.843C177.98 138.694 178.132 138.553 178.289 138.417C179.24 137.571 180.4 136.994 181.649 136.744C182.898 136.495 184.191 136.582 185.395 136.997C186.6 137.411 187.671 138.139 188.501 139.104C189.33 140.07 189.887 141.238 190.114 142.49C191.165 138.609 188.429 134.787 185.678 131.851C182.926 128.915 179.78 125.696 179.796 121.674C179.804 119.436 180.9 117.439 182.556 115.959C182.607 115.914 182.658 115.87 182.71 115.826C184.711 114.114 187.285 113.218 189.919 113.318C194.811 113.58 199.083 116.863 202.05 120.757C206.825 127.023 208.918 135.818 205.575 142.951C202.634 149.224 196.363 152.95 189.962 155.944C189.069 156.363 188.177 156.768 187.286 157.162C187.281 157.163 187.274 157.167 187.268 157.169C187.225 157.188 187.182 157.206 187.142 157.226C186.959 157.307 186.775 157.388 186.593 157.468L186.677 157.523L186.94 157.693C186.849 157.638 186.759 157.584 186.667 157.529C186.64 157.512 186.612 157.497 186.585 157.48C183.441 155.597 180.254 153.604 178.082 150.664C175.83 147.612 174.924 143.239 176.918 140.012Z" fill="#F1F1F1"/>
<path d="M197.891 132.923C198.587 134.504 199.049 136.178 199.261 137.892C199.428 139.42 199.365 140.965 199.075 142.474C198.451 145.577 197.089 148.485 195.105 150.953C193.608 152.826 191.88 154.504 189.962 155.945C189.069 156.363 188.177 156.768 187.286 157.162C187.281 157.163 187.274 157.167 187.268 157.169C187.225 157.188 187.182 157.206 187.142 157.226C186.959 157.307 186.775 157.388 186.593 157.468L186.677 157.523L186.94 157.693C186.849 157.638 186.759 157.584 186.667 157.529C186.64 157.512 186.612 157.497 186.585 157.48C187.276 155.064 187.378 152.517 186.881 150.054C186.384 147.591 185.303 145.282 183.729 143.322C182.146 141.386 180.127 139.851 177.837 138.843C177.98 138.694 178.132 138.553 178.289 138.417C179.171 138.821 180.015 139.303 180.812 139.856C183.663 141.823 185.804 144.655 186.918 147.931C187.912 150.904 188.036 154.098 187.276 157.139C187.434 157.036 187.592 156.93 187.746 156.825C190.675 154.853 193.374 152.485 195.407 149.581C197.16 147.127 198.282 144.28 198.674 141.29C199.064 138.025 198.245 134.814 196.785 131.901C195.173 128.784 193.141 125.901 190.747 123.334C188.342 120.696 185.622 118.361 182.649 116.383C182.582 116.337 182.535 116.268 182.518 116.19C182.5 116.111 182.514 116.028 182.556 115.959C182.588 115.896 182.643 115.849 182.71 115.826C182.744 115.818 182.779 115.817 182.814 115.824C182.848 115.831 182.881 115.845 182.909 115.867C183.276 116.111 183.64 116.358 183.999 116.612C186.993 118.728 189.712 121.208 192.094 123.994C194.395 126.68 196.49 129.663 197.891 132.923Z" fill="white"/>
<path d="M133.799 9.97627C136.323 9.97627 138.369 7.93337 138.369 5.41334C138.369 2.8933 136.323 0.850403 133.799 0.850403C131.275 0.850403 129.229 2.8933 129.229 5.41334C129.229 7.93337 131.275 9.97627 133.799 9.97627Z" fill="#F1F1F1"/>
<path d="M190.627 71.0391C192.166 71.0391 193.413 69.7936 193.413 68.2572C193.413 66.7207 192.166 65.4752 190.627 65.4752C189.088 65.4752 187.841 66.7207 187.841 68.2572C187.841 69.7936 189.088 71.0391 190.627 71.0391Z" fill="#F1F1F1"/>
<path d="M109.08 78.6719C110.619 78.6719 111.866 77.4264 111.866 75.89C111.866 74.3535 110.619 73.108 109.08 73.108C107.541 73.108 106.293 74.3535 106.293 75.89C106.293 77.4264 107.541 78.6719 109.08 78.6719Z" fill="#F1F1F1"/>
<path d="M110.653 158H207.745C207.813 158 207.878 157.973 207.925 157.925C207.973 157.878 208 157.813 208 157.746C208 157.678 207.973 157.613 207.925 157.566C207.878 157.518 207.813 157.491 207.745 157.491H110.653C110.586 157.491 110.521 157.518 110.473 157.566C110.425 157.613 110.398 157.678 110.398 157.746C110.398 157.813 110.425 157.878 110.473 157.925C110.521 157.973 110.586 158 110.653 158Z" fill="#CBCBCB"/>
<path d="M197.03 24.5867C197.158 23.683 196.949 22.764 196.443 22.0039C195.937 21.2437 195.17 20.6952 194.286 20.4623C193.402 20.2294 192.463 20.3283 191.648 20.7402C190.832 21.1521 190.196 21.8485 189.86 22.6973L181.982 31.7153L184.293 38.1617L192.217 27.6245C192.734 27.7898 193.281 27.84 193.82 27.7714C194.358 27.7029 194.875 27.5172 195.334 27.2276C195.793 26.938 196.183 26.5514 196.476 26.0951C196.769 25.6389 196.958 25.124 197.03 24.5867Z" fill="#FFB7B7"/>
<path d="M164.372 59.6759L190.525 31.8086L186.997 26.2092L154.194 53.9073L164.372 59.6759Z" fill="#3F3D56"/>
<path d="M158.535 42.744C163.601 42.744 167.709 38.6431 167.709 33.5845C167.709 28.5259 163.601 24.4251 158.535 24.4251C153.468 24.4251 149.361 28.5259 149.361 33.5845C149.361 38.6431 153.468 42.744 158.535 42.744Z" fill="#2F2E41"/>
<path d="M159.272 28.4103C161.246 26.4116 163.635 24.8693 166.271 23.8919C167.962 23.2661 169.804 22.8795 171.572 23.2349C173.341 23.5902 175.014 24.8118 175.507 26.5444C175.911 27.9612 175.494 29.4866 174.868 30.8202C174.242 32.1539 173.406 33.3906 172.899 34.774C172.383 36.1856 172.227 37.7036 172.447 39.1904C172.667 40.6771 173.256 42.0854 174.159 43.2875C175.063 44.4896 176.253 45.4474 177.621 46.0739C178.989 46.7004 180.492 46.9759 181.994 46.8752C180.256 47.1078 178.655 47.9232 176.956 48.3572C175.257 48.7912 173.252 48.7618 171.99 47.5468C170.655 46.2613 170.628 44.1712 170.692 42.3202C170.788 39.5686 170.884 36.8169 170.98 34.0653C171.029 32.662 171.071 31.2137 170.564 29.904C170.057 28.5942 168.853 27.4473 167.446 27.4592C166.381 27.4682 165.437 28.1129 164.582 28.7487C163.728 29.3844 162.823 30.0627 161.761 30.1573C160.7 30.2518 159.487 29.4674 159.567 28.4062L159.272 28.4103Z" fill="#2F2E41"/>
<path d="M123.691 95.0856C122.81 95.3299 121.87 95.2431 121.049 94.8418C120.228 94.4404 119.583 93.7523 119.237 92.9079C118.89 92.0635 118.866 91.1215 119.168 90.2602C119.47 89.399 120.079 88.6785 120.878 88.2352L128.803 79.2581L135.507 80.704L126.078 89.924C126.31 90.4142 126.432 90.9491 126.434 91.4912C126.436 92.0332 126.319 92.5692 126.092 93.0613C125.864 93.5534 125.531 93.9897 125.116 94.3395C124.702 94.6892 124.215 94.9439 123.691 95.0856H123.691Z" fill="#FFB7B7"/>
<path d="M149.766 62.9468L130.012 87.7027L123.991 84.9426L147.209 48.8533L149.766 62.9468Z" fill="#3F3D56"/>
<path d="M134.004 137.699L129.297 137.626L129.863 153.646H134.004L134.004 137.699Z" fill="#FFB7B7"/>
<path d="M135.06 152.296L126.905 152.296H126.905C125.526 152.296 124.204 152.843 123.23 153.816C122.255 154.789 121.708 156.108 121.708 157.485V157.653L135.06 157.654L135.06 152.296Z" fill="#2F2E41"/>
<path d="M165.175 133.45L160.032 136.747L170.319 149.103L173.804 146.869L165.175 133.45Z" fill="#FFB7B7"/>
<path d="M173.962 145.164L167.1 149.563L167.1 149.563C165.94 150.306 165.123 151.479 164.83 152.824C164.536 154.168 164.79 155.574 165.534 156.732L165.625 156.874L176.861 149.672L173.962 145.164Z" fill="#2F2E41"/>
<path d="M167.007 84.5313C167.007 84.5313 155.58 46.64 151.908 46.1279C148.236 45.6159 142.319 55.8504 142.319 55.8504C134.648 65.6225 126.738 97.2766 126.738 97.2766C126.738 97.2766 139.924 98.1005 149.564 103.221C159.204 108.341 170.58 102.962 170.58 102.962L167.007 84.5313Z" fill="#3F3D56"/>
<path opacity="0.1" d="M167.007 84.5313C167.007 84.5313 155.58 46.64 151.908 46.1279C148.236 45.6159 143.822 55.9542 143.822 55.9542C140 71.7288 126.738 97.2766 126.738 97.2766C126.738 97.2766 139.924 98.1005 149.564 103.221C159.204 108.341 170.58 102.962 170.58 102.962L167.007 84.5313Z" fill="black"/>
<path d="M157.632 73.1945V92.2346L159.877 119.816L171.089 140.679L165.738 144.495L150.448 124.65L144.4 104.945L134.903 148.566L127.767 148.057L132.723 87.5768L142.127 70.553L157.632 73.1945Z" fill="#2F2E41"/>
<path d="M146.111 54.7783C142.544 58.3403 145.857 62.1567 145.857 62.1567L141.779 71.3162L157.834 75.6414L163.444 50.6112L159.622 46.5404C151.977 46.2859 151.973 46.1277 151.973 46.1277C150.633 47.4365 146.111 54.7783 146.111 54.7783Z" fill="#039BFB"/>
<path d="M164.091 48.0181C163.362 47.4808 162.533 47.0932 161.653 46.8778C160.772 46.6625 159.858 46.6236 158.963 46.7636C158.067 46.9035 157.209 47.2194 156.436 47.693C155.664 48.1666 154.994 48.7885 154.464 49.5226C150.428 55.1333 146.696 64.1932 151.838 75.4926C160.094 93.6357 167.279 102.924 170.2 102.923C170.328 102.924 170.454 102.904 170.575 102.864C172.373 102.255 174.973 99.2173 175.443 96.5406C175.612 95.5825 175.572 94.248 174.424 93.3316C171.128 90.6993 165.21 82.5028 163.364 71.7144C162.344 65.7532 164.322 60.3231 166.162 56.8177C166.938 55.3672 167.166 53.6858 166.802 52.0816C166.438 50.4774 165.507 49.0579 164.18 48.0834L164.091 48.0181Z" fill="#3F3D56"/>
<path d="M159.006 41.8441C162.279 40.058 163.482 35.9613 161.693 32.6939C159.904 29.4266 155.801 28.2257 152.528 30.0119C149.255 31.798 148.053 35.8947 149.842 39.162C151.631 42.4294 155.734 43.6302 159.006 41.8441Z" fill="#FFB7B7"/>
<path d="M146.27 35.4183H156.021L156.121 34.0205L156.621 35.4183H158.123L158.321 32.6479L159.312 35.4183H162.217V35.281C162.215 33.3523 161.447 31.5032 160.081 30.1395C158.715 28.7757 156.863 28.0085 154.931 28.0063H153.556C151.624 28.0085 149.772 28.7757 148.406 30.1394C147.04 31.5032 146.272 33.3523 146.27 35.281V35.4183Z" fill="#2F2E41"/>
<path d="M160.744 40.4425L164.906 39.0943V29.0048H157.045L157.24 29.1988C159.947 31.8985 162.959 41.4768 160.744 40.4425Z" fill="#2F2E41"/>
</g>
<defs>
<clipPath id="clip0">
<rect width="208" height="158" fill="white"/>
</clipPath>
</defs>
</svg>
